<svg width="49" height="50" viewBox="0 0 49 50" fill="none" xmlns="http://www.w3.org/2000/svg">
<g id="&#240;&#159;&#166;&#134; icon &#34;facebook&#34;">
<path id="Vector" d="M48.9143 25.1506C48.9143 11.6395 37.959 0.69342 24.4571 0.69342C10.9461 0.69342 0 11.6395 0 25.1506C0 37.3547 8.94062 47.4738 20.6357 49.3066V32.2217H14.4251V25.1521H20.6357V19.7608C20.6357 13.6328 24.2814 10.2485 29.8698 10.2485C32.5464 10.2485 35.3482 10.7254 35.3482 10.7254V16.7434H32.259C29.2263 16.7434 28.2786 18.6312 28.2786 20.5649V25.1506H35.0609L33.971 32.2202H28.2786V49.3051C39.9645 47.4723 48.9143 37.3532 48.9143 25.149V25.1506Z" fill="#12D0E6"/>
</g>
</svg>
