<svg width="50" height="40" viewBox="0 0 50 40" fill="none" xmlns="http://www.w3.org/2000/svg">
<g id="&#240;&#159;&#166;&#134; icon &#34;Twitter&#34;">
<path id="Vector" d="M44.8007 10.0371C44.8318 10.4716 44.8318 10.9062 44.8318 11.3407C44.8318 24.5934 34.7448 39.8637 16.3087 39.8637C10.6289 39.8637 5.35263 38.2187 0.914307 35.3634C1.7213 35.4565 2.49715 35.4875 3.33519 35.4875C8.02172 35.4875 12.3359 33.9047 15.7811 31.2044C11.3738 31.1113 7.68037 28.2249 6.40782 24.2521C7.02862 24.3451 7.64932 24.4072 8.30116 24.4072C9.2012 24.4072 10.1013 24.283 10.9393 24.0659C6.34582 23.1347 2.9006 19.0999 2.9006 14.2271V14.103C4.23514 14.8479 5.78713 15.3134 7.43197 15.3754C4.73174 13.5753 2.9627 10.5026 2.9627 7.02645C2.9627 5.16426 3.4592 3.45722 4.32829 1.96743C9.26321 8.05069 16.6811 12.0234 24.999 12.458C24.8438 11.7131 24.7507 10.9372 24.7507 10.1613C24.7507 4.63662 29.22 0.136292 34.7757 0.136292C37.6621 0.136292 40.2692 1.34673 42.1004 3.30207C44.366 2.86757 46.5386 2.02953 48.463 0.881187C47.718 3.20902 46.1352 5.16436 44.0557 6.40575C46.0732 6.1886 48.0285 5.62981 49.8286 4.85396C48.4632 6.84025 46.7561 8.60929 44.8007 10.0371Z" fill="#12D0E6"/>
</g>
</svg>
